<svg xmlns="http://www.w3.org/2000/svg" width="82" height="106" fill="none" viewBox="0 0 82 106"><path fill="#EDB98A" fill-rule="evenodd" d="M80.9662 45.8086C79.3229 36.8289 75.2709 28.2847 69.048 21.5995C68.3298 20.8057 67.6846 19.5535 66.5888 19.3534C65.4889 17.1074 63.3924 15.5196 61.7164 13.7058C58.0582 10.0507 54.5582 5.96622 49.8398 3.65808C27.9549 -5.36173 6.89456 20.357 2.42541 39.699C-2.01356 55.254 2.83467 76.7117 22.0714 77.3412C24.7929 80.9483 28.5482 83.445 32.4057 85.6749C37.6736 89.0548 43.4201 90.4268 49.5146 88.5459C55.5841 90.1353 61.876 85.0349 65.5236 80.5619C68.4067 77.0972 70.3828 72.8687 73.0199 69.2824C76.1332 69.2044 78.8236 66.5627 79.2404 63.4662C82.1483 58.1112 82.0162 51.6943 80.9662 45.8086Z" clip-rule="evenodd"/><path fill="#FFDCA8" fill-rule="evenodd" d="M2.42541 39.699C6.89456 20.357 27.9549 -5.36173 49.8398 3.65808C54.5582 5.96622 58.0582 10.0507 61.7164 13.7058C63.3924 15.5196 65.4889 17.1074 66.5888 19.3534C67.6846 19.5535 68.3298 20.8057 69.048 21.5995C75.2709 28.2847 79.3229 36.8289 80.9662 45.8086C82.0162 51.6942 82.1483 58.1112 79.2404 63.4662C78.8236 66.5627 76.1332 69.2044 73.0199 69.2824C72.4492 70.0584 71.9096 70.8645 71.3849 71.6864L71.2611 71.7286L71.2458 70.8183C70.9832 56.069 70.1357 47.1656 68.703 44.1082C67.2558 41.0196 61.0275 35.3644 50.018 27.1426L49.6829 26.8926L47.0984 24.7538L45.0929 27.023C37.5476 35.5522 31.6413 42.1338 27.374 46.7678C22.7821 51.7544 18.897 59.3405 15.7189 69.5263L15.6228 69.8358L21.2381 77.3004C2.69509 76.0865 -1.94876 55.0269 2.42541 39.699Z" clip-rule="evenodd"/><path fill="#000" fill-rule="evenodd" d="M33.2963 0.602011C37.2785 -0.330348 41.4545 -0.137074 45.399 0.887603C53.2169 2.91878 59.6495 8.20071 64.9832 14.0898C70.1857 19.834 74.476 26.419 77.6094 33.5128L77.7682 33.8736C79.9846 38.9304 81.9107 44.1863 81.9933 49.7543C82.0644 54.5464 81.5813 59.5387 80.0364 64.0967C78.6601 68.1571 76.1286 72.2486 71.7734 73.222C69.262 79.6191 64.3487 85.1589 58.1596 88.1231C54.3209 89.9618 50.1053 90.7826 45.8612 90.3744C41.531 89.9584 37.4864 87.8734 34.1023 85.2145C34.0094 85.1416 34.1289 85.0003 34.2246 85.0554C38.299 87.4084 43.1178 88.2495 47.7847 88.0947C55.4541 87.8406 62.4851 83.6924 66.5252 77.172C67.5305 75.5492 68.4262 73.8374 69.1407 72.0567C69.0989 71.9103 69.0747 71.7618 69.0747 71.6171C69.0747 71.0036 69.3652 70.5348 69.7987 70.232C69.9997 69.6027 70.1774 68.9662 70.326 68.3224C70.6627 66.8644 70.8505 65.3854 70.9638 63.8944C71.0558 62.6831 71.0048 61.3981 71.1262 60.1558C71.082 59.1605 71.0206 58.166 70.9306 57.1737C70.6409 53.9763 70.0552 50.7867 68.9269 47.7731C67.7839 44.7207 65.9787 42.0289 63.7013 39.7119C58.8165 34.7427 52.7346 31.1143 47.9846 26.0094L47.7358 25.7393L47.7189 25.7339C47.1296 26.3395 46.5405 26.9451 45.9499 27.5494L43.2515 30.3075C37.7439 35.9431 32.281 41.6334 27.4897 47.9045C24.7308 51.5157 22.2521 55.3011 20.1164 59.3152C19.105 61.2164 18.188 63.165 17.3591 65.1527L17.0329 65.9441C16.6448 66.8911 16.2254 67.9511 15.9924 69.0205C16.6856 69.7096 17.1925 70.7222 17.7532 71.5043C18.3891 72.3913 19.1225 73.2356 19.877 74.0237C20.6408 74.8214 21.4785 75.5861 22.3678 76.2413L22.4746 76.3185C23.4949 77.0442 24.6662 77.5453 24.8192 78.9266C24.8856 79.5264 24.3505 80.0089 23.855 80.1957C22.4987 80.7062 21.0937 79.2396 20.1897 78.3959C19.626 77.8697 19.1077 77.3027 18.6272 76.704C18.1594 76.7711 17.6885 76.8047 17.2225 76.7493C16.5004 76.6633 15.7854 76.5368 15.082 76.3514C9.24784 74.8164 4.92954 69.9629 2.5997 64.5576C-0.528179 57.3006 -0.455451 48.9353 0.84487 41.2612C3.22086 27.2371 10.9107 14.1402 22.5224 5.84866C25.7744 3.5265 29.3805 1.51871 33.2963 0.602011ZM39.5821 2.47807C32.0808 2.08198 25.2417 5.95826 19.7547 10.7835C9.76413 19.569 3.61037 32.4323 2.37236 45.6417C1.71456 52.66 2.20679 60.2249 5.85868 66.4257C7.27554 68.8316 9.10041 70.9279 11.2544 72.6954C13.2842 74.3613 15.5979 75.3213 18.0714 75.9746C17.9588 75.8191 17.8476 75.6625 17.7395 75.5036C17.1642 74.6595 16.7071 73.7622 16.3243 72.8221C16.2905 72.8559 16.2269 72.8628 16.1894 72.8111C14.6282 70.6644 15.1168 68.1029 15.861 65.7422C16.6412 63.2662 17.6302 60.8569 18.7588 58.5198C22.8728 50.0028 28.9917 42.583 35.3433 35.6591C38.5872 32.1231 41.9387 28.6896 45.2778 25.2443C46.9453 23.5239 48.6084 21.7985 50.2504 20.0532C51.0677 19.1844 51.8799 18.3111 52.6848 17.4307C53.4807 16.5603 54.1968 15.6383 55.1877 14.9864C55.9777 14.4668 56.7662 15.4598 56.397 16.1984C55.8292 17.3343 54.8526 18.2348 53.9884 19.1586L53.8995 19.2542C53.0571 20.1655 52.2068 21.0694 51.3514 21.9685C50.3677 23.0026 49.3763 24.0296 48.3818 25.0539C49.2299 24.9554 50.0881 24.8988 50.9312 24.7705C52.0762 24.5963 53.2057 24.3396 54.3295 24.0605C55.5139 23.7666 56.6829 23.3914 57.8112 22.925C58.8712 22.487 59.8731 21.7851 61.0395 21.7164C62.0268 21.6581 62.3351 22.8831 61.7881 23.5277C61.0342 24.4159 59.6789 24.7655 58.5767 25.0954L58.421 25.1424C57.2019 25.5153 55.9544 25.7951 54.6934 25.9821C53.0342 26.2283 51.1167 26.3409 49.3416 26.089C52.8864 28.1719 56.1484 30.7531 59.4011 33.2705L59.9751 33.714C63.1531 36.1643 66.2548 38.8057 68.5207 42.1581C70.6357 45.2877 71.9129 48.9313 72.6296 52.6232C72.9832 54.4445 73.2164 56.2851 73.373 58.1334C73.9565 59.7722 73.8628 61.7205 73.7158 63.5228L73.6634 64.1449L73.6674 64.3274C73.6893 65.4547 74.1413 67.9645 73.0767 68.8157C73.0586 68.9064 73.0417 68.9977 73.0227 69.0883C73.1552 69.0063 73.2861 68.9219 73.4159 68.8351C73.4693 68.7993 73.521 68.7599 73.5732 68.7212L73.7204 68.6002C73.726 68.5954 73.7308 68.5913 73.7347 68.5879C74.0651 68.2973 74.3803 67.9938 74.6741 67.6658C75.2169 67.0595 75.733 66.2891 76.2218 65.4016C77.2959 63.4508 77.9821 61.3302 78.5127 59.1376C79.4828 55.1291 79.8831 50.8236 79.4406 46.7126C79.3788 46.1388 79.252 45.4193 79.0554 44.6811C78.5885 42.9283 78.0514 41.1941 77.45 39.4832C76.247 36.0606 74.7723 32.7402 73.0528 29.5471C69.5608 23.0614 65.0677 17.0652 59.6844 12.0334C54.2326 6.93759 47.1624 2.87829 39.5821 2.47807ZM29.0035 23.2001C29.2739 23.0345 29.5523 23.3561 29.4181 23.6156C28.7686 24.8715 27.6764 25.9319 26.7692 27.008C25.8298 28.1223 24.8973 29.2427 23.967 30.3647C22.0729 32.6493 20.2241 34.9758 18.4483 37.3541L17.9795 37.9832C16.4182 40.0835 14.8759 42.2169 13.5111 44.4484C12.7971 45.6158 12.1679 46.8231 11.5965 48.0664C11.0525 49.25 10.8017 50.6787 10.148 51.7905C10.1069 51.8606 9.97939 51.8549 9.96359 51.7662C9.75025 50.5691 10.2773 49.1273 10.6539 48.0063C11.1016 46.6732 11.7387 45.4034 12.4207 44.177C13.8434 41.6187 15.5479 39.2208 17.2604 36.8518C18.9996 34.4464 20.8052 32.09 22.6996 29.8049C23.5893 28.7316 24.4991 27.6797 25.436 26.6485L25.7887 26.2628C26.7701 25.196 27.7592 23.9613 29.0035 23.2001ZM24.4557 19.481C24.9005 19.1508 25.2802 19.8256 24.9964 20.1834C23.3014 22.3202 21.3727 24.2402 19.5177 26.233C17.7363 28.1469 16.0335 30.1323 14.4269 32.1959C11.1508 36.4038 8.52846 41.0212 6.30744 45.8604C6.2656 45.9517 6.13379 45.8836 6.15354 45.7955C7.32997 40.5611 10.0803 35.807 13.212 31.5116L13.3311 31.3487C16.4986 27.0291 20.1398 22.687 24.4557 19.481Z" clip-rule="evenodd"/><path fill="#000" fill-rule="evenodd" d="M52.658 76.6483C51.4483 76.1548 50.3689 75.3316 49.5797 74.28C49.3054 73.9144 49.2343 73.5284 49.2918 73.1753C49.3565 72.7783 49.5914 72.4185 49.9117 72.1771C50.2331 71.935 50.635 71.8156 51.0236 71.8765C51.3612 71.9294 51.6973 72.1142 51.9633 72.4977L52.0189 72.5743C52.4881 73.209 53.0994 73.7298 53.796 74.0655C54.4674 74.389 55.2183 74.54 55.9953 74.4522C57.4753 74.285 58.4953 73.4846 59.5795 72.3978C59.7139 72.2605 59.8484 72.119 59.9835 71.9752C60.0689 71.8449 60.1873 71.7611 60.3188 71.7171C60.4648 71.6683 60.6299 71.6711 60.7812 71.7239C60.9271 71.7748 61.0575 71.8712 61.1449 71.9997C61.2281 72.1217 61.2752 72.2725 61.2599 72.4459C61.1606 73.5723 60.5718 74.5775 59.7353 75.3668C58.8063 76.2435 57.5748 76.85 56.4154 77.0627C55.1381 77.297 53.8365 77.1291 52.658 76.6483ZM57.0179 59.2717C58.3769 60.0978 60.4474 62.0239 58.9856 64.0716C57.2648 65.8772 54.7872 63.807 53.5663 62.8707C52.4343 62.1451 51.1623 64.0113 52.2127 64.8586C61.0348 71.3902 64.6151 59.4877 57.7053 58.3006C56.9445 58.1697 56.6619 59.0162 57.0179 59.2717ZM41.2085 51.6738C41.3587 49.8101 44.1971 49.3869 44.4794 51.2311C44.7323 52.8831 44.4346 54.4007 43.6905 55.8881C42.9795 57.309 41.1924 56.6461 41.0573 55.3522C40.8761 53.6178 41.1151 52.8331 41.2085 51.6738ZM62.8148 50.8487C63.2106 50.3305 63.7819 49.9767 64.4665 50.1766C66.6053 50.8016 65.9749 53.838 65.2237 55.316C64.8156 56.1186 63.4963 56.3221 62.9001 55.6154C61.9284 54.463 61.463 52.1615 62.6984 51.0264C62.7319 50.9677 62.7691 50.9085 62.8148 50.8487ZM43.6604 43.5189L43.9982 43.4598C45.0434 43.279 46.3429 43.1053 47.0822 43.9456C47.4744 44.3911 47.6093 45.2193 47.0822 45.6458C46.1551 46.3962 45.1301 46.1054 44.019 46.1689C43.1034 46.2215 42.2234 46.373 41.3414 46.6251C39.4065 47.1781 37.8299 48.1877 36.1774 49.2962C35.9605 49.4416 35.7392 49.1643 35.8427 48.9615C36.7966 47.093 38.6453 45.5582 40.4971 44.6226C41.4854 44.1232 42.5669 43.7089 43.6604 43.5189ZM60.8652 42.6819L61.1238 42.7348C63.9378 43.323 67.5939 44.498 68.9265 47.2621C68.9772 47.6529 68.9236 47.7367 68.88 47.7914L68.8654 47.8096C68.8295 47.8564 68.8008 47.9208 68.6314 47.974C68.5844 47.9628 68.5369 47.9509 68.4889 47.9383C67.8781 47.7783 67.3948 47.5577 66.9269 47.3289L66.4196 47.079C65.8311 46.7904 65.2373 46.5123 64.6081 46.307C63.2652 45.869 61.8839 45.5605 60.4813 45.3957C60.1773 45.36 59.8845 45.2574 59.6536 45.0816C59.4344 44.9147 59.2669 44.6836 59.1905 44.3764C59.0916 43.9789 59.12 43.6779 59.3333 43.3192C59.4937 43.0499 59.7232 42.8632 59.9867 42.756C60.2553 42.6468 60.5612 42.621 60.8652 42.6819Z" clip-rule="evenodd"/><path fill="#000" fill-rule="evenodd" d="M60.8293 79.4169C59.1533 77.9238 57.2748 74.9221 54.8671 77.2972C54.2716 77.9683 54.0305 79.4727 53.1199 79.7679C51.9106 80.1602 50.7121 78.8807 50.3 77.8981C48.6138 72.4387 55.5842 70.9413 59.5552 71.8233C61.4951 72.62 62.924 75.8268 63.0104 77.5004C63.0661 78.6251 62.1142 80.2789 60.8293 79.4169ZM73.4731 71.0021C73.4567 70.9296 73.4338 70.8641 73.4063 70.8045C72.6651 70.5244 72.0786 70.8101 71.7162 71.3439C71.728 71.4765 71.7676 71.6109 71.7926 71.7425C71.513 72.3317 71.2607 73.0607 70.8817 73.5698C70.8068 73.5755 70.7293 73.5676 70.6548 73.546C64.3719 74.2021 67.4393 67.6285 61.0668 65.9957C56.1409 65.183 47.2376 66.114 44.9139 71.2411C43.0812 79.4306 33.7624 73.7242 30.7028 69.4651C27.4382 65.589 25.3273 60.8526 23.292 56.2564C22.8619 55.2838 21.5196 55.9793 21.6655 56.9126C19.7843 60.6864 19.8469 65.2196 19.381 69.3539C18.5885 77.6022 17.8163 89.1695 25.4801 94.206C35.4654 105.492 60.3999 109.475 71.9168 99.105C75.9036 90.5336 75.4121 80.0768 73.4731 71.0021Z" clip-rule="evenodd"/><path fill="#000" fill-rule="evenodd" d="M66.9145 45.8889C71.1385 45.8889 73.549 46.7973 74.4323 46.868L74.4589 46.8699C74.8263 46.8934 75.1558 46.9241 75.5016 47.0579C76.7731 47.5476 76.9802 48.8811 76.2382 49.7216C76.1862 51.4606 76.4149 53.4926 76.0225 55.2372C75.5384 62.5923 72.0794 63.8335 70.1133 64.2865C69.1262 64.514 67.9562 64.6045 66.9077 64.3644C65.119 64.2977 63.3506 63.7377 61.8376 62.7627C59.7304 61.4036 58.1654 59.3147 57.6575 56.8357C57.4168 55.654 57.3043 54.4241 57.4353 53.2229L57.4547 53.0575C56.7698 52.7298 55.9761 52.6679 55.1579 52.639C54.7671 52.625 54.3819 52.6126 54.0076 52.6292C53.6418 52.67 53.2804 52.7244 52.9178 52.7985C52.522 52.918 52.1481 53.1151 51.8029 53.4273L51.7791 53.8831C51.7142 55.0215 51.5648 56.1633 51.3342 57.2802C50.9939 58.9282 50.4464 60.5021 49.2811 61.671C48.8867 62.2601 48.3986 62.786 47.8061 63.2413C45.6538 64.8985 42.7295 65.5069 40.0457 65.2778C34.5972 64.8129 31.4478 60.4876 30.722 58.6389L30.6786 58.5269C30.1543 57.1525 29.7365 55.3692 28.0798 55.0739L27.7274 55.0106C26.9714 54.8687 26.2738 54.6711 25.8305 53.9335C25.6362 53.6115 25.5362 53.2513 25.5117 52.8842C25.2531 52.904 24.9949 52.923 24.7375 52.9414C22.6845 53.3756 10.3704 53.7438 9.38754 53.7438C9.38754 53.7438 7.49817 54.539 6.70048 53.9228C6.14757 53.4944 5.96568 52.9234 6.27004 52.2765C6.72929 51.3031 8.84801 50.7177 9.78881 50.5323C9.78881 50.5323 24.9708 50.6584 26.0636 50.4512C26.7397 49.7541 27.949 49.8495 28.9595 49.7393C29.7961 49.1428 30.9664 48.7432 31.8908 48.4758C32.0792 48.4044 32.2658 48.3354 32.4472 48.2704C34.1419 47.6668 35.9034 47.3472 37.6918 47.1755C39.536 47.0002 41.3856 47.0795 43.219 47.3307C43.9916 47.4355 44.757 47.571 45.5171 47.7483C46.8779 47.9277 48.2309 48.2232 49.5923 48.5738L49.8646 48.6446C51.2982 49.0204 52.7714 49.3455 54.2554 49.0907C55.4636 48.8847 56.6254 48.4197 57.7394 47.9169L57.8844 47.8511C60.3338 46.7328 64.1589 45.8889 66.9145 45.8889ZM45.3697 49.978C44.466 49.7792 44.0801 51.1726 44.9867 51.3719C45.6287 51.513 46.1728 51.8368 46.5404 52.3853L46.5791 52.4449C47.0724 53.2298 48.3198 52.5052 47.823 51.7152C47.2642 50.8262 46.3958 50.2035 45.3697 49.978ZM71.839 49.114C71.5204 48.8896 71.0383 49.0562 70.8533 49.3733C70.6497 49.7226 70.7831 50.1114 71.0815 50.3398L71.1119 50.3621C71.3856 50.555 71.6522 50.9008 71.6856 51.2551L71.6886 51.2994C71.7244 52.2266 73.1654 52.2313 73.1294 51.2994C73.0943 50.3878 72.5664 49.6261 71.839 49.114Z" clip-rule="evenodd"/></svg>