<svg width="82" height="82" viewBox="0 0 82 82" fill="none" xmlns="http://www.w3.org/2000/svg">
<path opacity="0.9" d="M41 81.0819C63.1367 81.0819 81.0821 63.1365 81.0821 40.9998C81.0821 18.8631 63.1367 0.917725 41 0.917725C18.8633 0.917725 0.917915 18.8631 0.917915 40.9998C0.917915 63.1365 18.8633 81.0819 41 81.0819Z" fill="#FFCF77"/>
<path d="M41 0C63.6437 0 82 18.3563 82 41C82 63.6437 63.6437 82 41 82C18.3563 82 0 63.6437 0 41C0 18.3563 18.3563 0 41 0ZM40.6473 1.32258C18.8802 1.32258 1.23441 18.9683 1.23441 40.7355C1.23441 62.5026 18.8802 80.1484 40.6473 80.1484C62.4145 80.1484 80.0602 62.5026 80.0602 40.7355C80.0602 18.9683 62.4145 1.32258 40.6473 1.32258Z" fill="black"/>
<path fill-rule="evenodd" clip-rule="evenodd" d="M66.3845 47.8896C65.4532 42.8004 63.1568 37.958 59.63 34.1692C59.223 33.7193 58.8573 33.0096 58.2362 32.8962C57.6129 31.6233 56.4247 30.7234 55.4748 29.6955C53.4015 27.624 51.4179 25.3091 48.7438 24.001C36.3406 18.889 24.4048 33.465 21.8719 44.427C19.3561 53.2427 22.1038 65.4038 33.0062 65.7606C34.5486 67.8049 36.6769 69.2199 38.8631 70.4836C41.8487 72.3992 45.1055 73.1768 48.5595 72.1108C51.9994 73.0116 55.5653 70.121 57.6325 67.5859C59.2665 65.6223 60.3864 63.2258 61.881 61.1933C63.6455 61.1491 65.1703 59.6519 65.4065 57.8969C67.0545 54.862 66.9796 51.2253 66.3845 47.8896Z" fill="#EDB98A"/>
<path fill-rule="evenodd" clip-rule="evenodd" d="M21.8719 44.427C24.4048 33.465 36.3406 18.889 48.7438 24.001C51.4179 25.3091 53.4015 27.624 55.4748 29.6955C56.4247 30.7234 57.6129 31.6233 58.2362 32.8962C58.8573 33.0096 59.223 33.7193 59.63 34.1692C63.1568 37.958 65.4532 42.8004 66.3845 47.8896C66.9796 51.2253 67.0545 54.862 65.4065 57.8969C65.1703 59.6519 63.6455 61.1491 61.881 61.1933C61.5576 61.6331 61.2517 62.0899 60.9544 62.5558L60.8842 62.5796L60.8755 62.0637C60.7267 53.7046 60.2464 48.6587 59.4345 46.9259C58.6142 45.1755 55.0844 41.9704 48.8448 37.3107L48.6549 37.1691L47.1901 35.9569L46.0535 37.243C41.7772 42.0768 38.4299 45.8069 36.0114 48.4332C33.4089 51.2593 31.2071 55.5588 29.4059 61.3315L29.3515 61.5069L32.5339 65.7375C22.0247 65.0495 19.3928 53.114 21.8719 44.427Z" fill="#9DDADB"/>
<path fill-rule="evenodd" clip-rule="evenodd" d="M39.3678 22.2689C41.6246 21.7405 43.9914 21.85 46.2269 22.4308C50.6577 23.5819 54.3034 26.5755 57.3262 29.9131C60.2747 33.1686 62.7062 36.9006 64.4821 40.921L64.5721 41.1255C65.8282 43.9914 66.9198 46.9702 66.9666 50.1258C67.0069 52.8417 66.7331 55.6711 65.8576 58.2543C65.0775 60.5555 63.6428 62.8743 61.1745 63.426C59.7512 67.0515 56.9666 70.1912 53.4589 71.8712C51.2834 72.9132 48.8942 73.3784 46.4889 73.1471C44.0348 72.9113 41.7425 71.7296 39.8246 70.2227C39.7719 70.1814 39.8396 70.1013 39.8939 70.1325C42.203 71.4661 44.9341 71.9428 47.579 71.8551C51.9256 71.711 55.9104 69.3601 58.2001 65.6647C58.7698 64.7449 59.2775 63.7748 59.6825 62.7656C59.6587 62.6826 59.645 62.5984 59.645 62.5164C59.645 62.1688 59.8097 61.9031 60.0554 61.7314C60.1693 61.3748 60.27 61.014 60.3542 60.6492C60.545 59.8229 60.6515 58.9846 60.7157 58.1396C60.7678 57.4531 60.7389 56.7248 60.8077 56.0208C60.7826 55.4567 60.7478 54.8931 60.6969 54.3307C60.5327 52.5186 60.2007 50.7109 59.5612 49.003C58.9134 47.273 57.8904 45.7474 56.5997 44.4343C53.8312 41.618 50.3843 39.5617 47.6923 36.6685L47.5513 36.5154L47.5417 36.5123C47.2077 36.8555 46.8739 37.1987 46.5392 37.5412L45.0098 39.1044C41.8884 42.2983 38.7923 45.5233 36.0769 49.0774C34.5133 51.1241 33.1085 53.2694 31.8981 55.5444C31.3249 56.6219 30.8052 57.7262 30.3354 58.8528L30.1506 59.3013C29.9306 59.838 29.6929 60.4387 29.5609 61.0448C29.9537 61.4353 30.241 62.0092 30.5588 62.4525C30.9191 62.9552 31.3348 63.4337 31.7625 63.8804C32.1953 64.3325 32.6701 64.7658 33.1741 65.1372L33.2346 65.181C33.8129 65.5922 34.4767 65.8762 34.5634 66.6591C34.6011 66.999 34.2978 67.2724 34.017 67.3783C33.2483 67.6677 32.452 66.8364 31.9396 66.3583C31.6202 66.0601 31.3265 65.7387 31.0541 65.3994C30.789 65.4374 30.5221 65.4565 30.258 65.4251C29.8488 65.3763 29.4435 65.3046 29.0449 65.1996C25.7384 64.3296 23.291 61.5789 21.9706 58.5155C20.1979 54.4026 20.2391 49.6616 20.976 45.3123C22.3226 37.3643 26.6808 29.9416 33.2617 25.2424C35.1047 23.9264 37.1485 22.7885 39.3678 22.2689ZM42.9302 23.3322C38.6789 23.1077 34.8029 25.3046 31.6931 28.0392C26.031 33.0184 22.5434 40.3086 21.8417 47.795C21.4689 51.7726 21.7479 56.06 23.8176 59.5742C24.6206 60.9377 25.6548 62.1258 26.8756 63.1276C28.026 64.0717 29.3373 64.6158 30.7391 64.986C30.6753 64.8979 30.6123 64.8092 30.551 64.7191C30.2249 64.2407 29.9659 63.7322 29.7489 63.1994C29.7298 63.2185 29.6938 63.2224 29.6725 63.1931C28.7877 61.9765 29.0646 60.5248 29.4864 59.1869C29.9286 57.7836 30.489 56.4182 31.1287 55.0936C33.4603 50.2666 36.9281 46.0615 40.5279 42.1374C42.3664 40.1334 44.2658 38.1874 46.1582 36.2348C47.1033 35.2598 48.0458 34.2819 48.9765 33.2928C49.4396 32.8004 49.9 32.3055 50.3561 31.8065C50.8072 31.3132 51.2131 30.7907 51.7747 30.4212C52.2224 30.1267 52.6693 30.6895 52.46 31.1081C52.1382 31.7519 51.5847 32.2623 51.0949 32.7858L51.0445 32.84C50.5671 33.3565 50.0852 33.8688 49.6004 34.3783C49.0429 34.9643 48.481 35.5464 47.9174 36.1269C48.3981 36.0711 48.8845 36.039 49.3623 35.9663C50.0112 35.8676 50.6514 35.7221 51.2883 35.5639C51.9595 35.3974 52.622 35.1847 53.2615 34.9204C53.8623 34.6721 54.4301 34.2744 55.0911 34.2354C55.6506 34.2024 55.8254 34.8966 55.5154 35.2619C55.0881 35.7654 54.32 35.9635 53.6953 36.1504L53.6071 36.1771C52.9162 36.3884 52.2091 36.547 51.4945 36.653C50.5542 36.7925 49.4674 36.8564 48.4614 36.7136C50.4704 37.894 52.3191 39.3569 54.1626 40.7837L54.4879 41.035C56.289 42.4237 58.0468 43.9207 59.331 45.8207C60.5297 47.5944 61.2536 49.6594 61.6597 51.7517C61.8601 52.7839 61.9923 53.8271 62.0811 54.8746C62.4118 55.8034 62.3587 56.9076 62.2754 57.929L62.2457 58.2816L62.2479 58.385C62.2603 59.0239 62.5165 60.4463 61.9132 60.9288C61.9029 60.9802 61.8933 61.0319 61.8825 61.0833C61.9576 61.0368 62.0318 60.9889 62.1054 60.9398C62.1356 60.9195 62.165 60.8971 62.1946 60.8752L62.2779 60.8066C62.2811 60.8039 62.2839 60.8016 62.2861 60.7996C62.4733 60.6349 62.6519 60.463 62.8184 60.277C63.1261 59.9334 63.4186 59.4968 63.6956 58.9938C64.3044 57.8882 64.6932 56.6864 64.994 55.4437C65.5438 53.1719 65.7706 50.7318 65.5199 48.4019C65.4848 48.0767 65.413 47.6689 65.3016 47.2506C65.0369 46.2572 64.7325 45.2743 64.3917 44.3047C63.7099 42.3649 62.8741 40.4831 61.8996 38.6734C59.9205 34.9977 57.3741 31.5994 54.3231 28.7476C51.2333 25.8596 47.2263 23.559 42.9302 23.3322ZM36.9348 35.0763C37.0881 34.9825 37.2459 35.1647 37.1698 35.3118C36.8017 36.0236 36.1827 36.6245 35.6685 37.2344C35.1362 37.8659 34.6076 38.5009 34.0805 39.1368C33.0069 40.4316 31.9592 41.7501 30.9527 43.098L30.687 43.4546C29.8022 44.6449 28.9281 45.854 28.1546 47.1187C27.75 47.7803 27.3933 48.4645 27.0695 49.1692C26.7612 49.84 26.619 50.6497 26.2486 51.2798C26.2253 51.3195 26.153 51.3163 26.144 51.266C26.0231 50.5876 26.3218 49.7704 26.5353 49.1351C26.789 48.3796 27.1501 47.6599 27.5366 46.9649C28.3429 45.515 29.3089 44.156 30.2795 42.8134C31.2652 41.4501 32.2885 40.1146 33.3621 38.8195C33.8664 38.2112 34.382 37.6151 34.913 37.0307L35.1129 36.8121C35.6691 36.2075 36.2296 35.5077 36.9348 35.0763ZM34.3574 32.9685C34.6095 32.7814 34.8247 33.1638 34.6639 33.3666C33.7032 34.5776 32.6101 35.6658 31.5588 36.7952C30.5492 37.8799 29.5842 39.0051 28.6736 40.1746C26.8169 42.5595 25.3307 45.1763 24.0719 47.9189C24.0482 47.9706 23.9735 47.9321 23.9847 47.8821C24.6515 44.9156 26.2102 42.2212 27.9851 39.7868L28.0526 39.6945C29.8478 37.2464 31.9114 34.7855 34.3574 32.9685Z" fill="black"/>
<path fill-rule="evenodd" clip-rule="evenodd" d="M54.8279 63.2155C54.4913 63.6556 53.8819 63.9926 53.1995 64.1538C52.5491 64.3074 51.8304 64.3011 51.2101 64.0647L51.1568 64.0435C50.6931 63.8509 50.2479 63.462 50.0789 63.0561C50.0117 62.8948 49.9889 62.7308 50.0349 62.5777C50.0763 62.44 50.1733 62.3133 50.3349 62.2045C50.3856 62.1703 50.4536 62.1678 50.5184 62.1792C50.5989 62.1934 50.6782 62.231 50.726 62.2819C50.9914 62.564 51.3764 62.8392 51.8321 62.8345C52.1837 62.8309 52.4708 62.692 52.7493 62.5351L52.9449 62.4231C53.1337 62.3154 53.3252 62.2141 53.5418 62.1679C53.9295 62.0851 54.3998 62.2364 54.6864 62.486C54.8114 62.5949 54.9022 62.7228 54.9269 62.8606C54.9476 62.9763 54.9185 63.0971 54.8279 63.2155ZM52.8119 55.5198C53.5821 55.988 54.7556 57.0796 53.9271 58.2401C52.9518 59.2635 51.5477 58.0902 50.8557 57.5595C50.2141 57.1483 49.4933 58.206 50.0885 58.6862C55.0885 62.3879 57.1176 55.6422 53.2014 54.9694C52.7703 54.8953 52.6101 55.375 52.8119 55.5198ZM44.1232 48.3248L44.3445 48.2642L44.5701 48.2033L44.7227 48.1629C45.7706 47.8887 46.9264 47.6473 47.9656 47.7651C48.3446 47.8082 48.6522 48.0214 48.7059 48.4185C48.751 48.7535 48.5345 49.1857 48.166 49.2453C46.9455 49.4427 45.696 49.3787 44.4699 49.5823C43.8593 49.6835 43.2534 49.8093 42.6451 49.9226C42.1826 50.0089 41.7047 50.0392 41.2381 50.1089L41.3453 50.1238C41.3829 50.1289 41.3735 50.1921 41.3365 50.1895C41.1827 50.1742 41.0287 50.1718 40.8745 50.1826L40.8084 50.188C40.7077 50.2022 40.6483 50.082 40.7381 50.021C41.3065 49.6354 41.7888 49.2175 42.4252 48.9332C42.9757 48.6874 43.5422 48.4848 44.1232 48.3248ZM53.6633 47.7334C54.469 46.9189 56.1825 47.2319 57.141 47.6045C57.688 47.8173 58.2082 48.0862 58.6414 48.4885L58.6837 48.5281L58.7487 48.5907C59.0412 48.877 59.3673 49.271 59.3209 49.6838C59.3139 49.7467 59.2796 49.8186 59.2085 49.8312C58.8246 49.8993 58.4476 49.6967 58.093 49.5748L57.8582 49.4943C57.5057 49.3742 57.1509 49.2594 56.7874 49.1766C56.3353 49.0738 55.8742 49.0143 55.4102 49.0202C54.9411 49.0263 54.4373 49.1587 53.9905 48.9725C53.4922 48.7649 53.2338 48.1677 53.6633 47.7334ZM45.7034 54.3023C45.4978 54.5123 45.2263 54.6307 44.8788 54.5603C44.6073 54.5053 44.0903 54.2322 43.6773 53.8118C43.3948 53.5241 43.1586 53.1647 43.0944 52.7483C43.0794 52.6516 43.0281 52.5897 42.9607 52.5506C42.9075 52.5198 42.8374 52.5043 42.761 52.512C42.6961 52.5186 42.6272 52.5421 42.5739 52.5732C42.4727 52.6325 42.4313 52.7166 42.4228 52.7794C42.3416 53.3856 42.5757 53.9871 42.9407 54.4943C43.4333 55.1787 44.1567 55.6802 44.5818 55.7976C45.3094 55.9986 46.0761 55.8386 46.6413 55.3322C47.0933 54.9273 47.325 54.3998 47.54 53.8574L47.5814 53.7522C47.6298 53.6292 47.6777 53.507 47.7286 53.3861C47.8305 53.1439 47.7978 52.9345 47.699 52.7713C47.5896 52.5905 47.3876 52.4632 47.1627 52.4241C46.9548 52.388 46.7324 52.4275 46.5568 52.5545C46.4084 52.6618 46.2888 52.8317 46.2463 53.083C46.1772 53.4916 46.0169 53.9605 45.7341 54.2698L45.7034 54.3023ZM58.1793 51.9372C58.0098 51.8489 57.8771 51.8223 57.6891 51.8786C57.5851 51.9099 57.4823 51.9697 57.4018 52.0502C57.3221 52.1299 57.2645 52.2291 57.2422 52.3391C57.1872 52.6107 57.0386 52.8648 56.8269 53.0305C56.6459 53.1722 56.4175 53.2472 56.1642 53.2049C55.8908 53.1592 55.6303 52.9839 55.451 52.7772C55.401 52.7196 55.36 52.6554 55.3204 52.5905L55.2968 52.5515C55.2084 52.4055 55.1225 52.2699 55.0006 52.1627C54.9544 52.122 54.8847 52.0937 54.8173 52.0937C54.7899 52.0937 54.7621 52.0982 54.7356 52.1065C54.4635 52.3796 54.4111 52.5867 54.4199 52.7922C54.4291 53.0077 54.5141 53.2259 54.6514 53.4294C54.9734 53.907 55.5849 54.2985 55.9975 54.3872C56.5625 54.5086 57.1237 54.3628 57.5737 54.0472C58.0366 53.7225 58.3797 53.2183 58.4866 52.6501C58.5124 52.5132 58.5014 52.3655 58.4493 52.2375C58.3984 52.1123 58.3096 52.0051 58.1793 51.9372Z" fill="black"/>
<path fill-rule="evenodd" clip-rule="evenodd" d="M54.972 66.9371C54.0222 66.0909 52.9575 64.3897 51.593 65.7357C51.2555 66.116 51.1189 66.9687 50.6028 67.1359C49.9174 67.3583 49.2382 66.6331 49.0046 66.0763C48.049 62.9822 51.9994 62.1335 54.2499 62.6334C55.3494 63.0849 56.1592 64.9024 56.2082 65.8509C56.2398 66.4883 55.7002 67.4256 54.972 66.9371ZM62.1379 62.168C62.1286 62.1269 62.1156 62.0898 62.1 62.056C61.6799 61.8972 61.3475 62.0592 61.1421 62.3617C61.1489 62.4369 61.1713 62.513 61.1855 62.5876C61.027 62.9215 60.884 63.3347 60.6692 63.6232C60.6268 63.6265 60.5828 63.622 60.5406 63.6097C56.9798 63.9816 58.7182 60.256 55.1067 59.3306C52.3149 58.8701 47.269 59.3977 45.952 62.3035C44.9134 66.9448 39.632 63.7107 37.898 61.2969C36.0478 59.1002 34.8514 56.4158 33.6979 53.8109C33.4542 53.2597 32.6934 53.6539 32.7761 54.1828C31.7099 56.3216 31.7454 58.8908 31.4814 61.2339C31.0322 65.9086 30.5946 72.4643 34.938 75.3187C40.5972 81.7152 54.7287 83.9725 61.2558 78.0952C63.5153 73.2374 63.2368 67.3111 62.1379 62.168Z" fill="black"/>
</svg>