<svg width="28" height="26" viewBox="0 0 28 26" fill="none" xmlns="http://www.w3.org/2000/svg">
<path d="M15.4096 12.283L13.8865 10.7725C13.5376 10.4265 13.0647 10.2316 12.5713 10.2303C12.0779 10.229 11.604 10.4214 11.2533 10.7655L0.663874 20.454C0.278286 20.8143 0.0251156 21.2735 0.00178195 21.7876C-0.00944479 22.0426 0.0324693 22.2971 0.124907 22.5353C0.217346 22.7735 0.358323 22.9903 0.539039 23.1721L2.81407 25.4524C2.81528 25.4539 2.81665 25.4552 2.81815 25.4564C3.16971 25.8038 3.64538 25.9996 4.14175 26.0012H4.21059C4.72918 25.9821 5.19352 25.7409 5.56219 25.3552L15.4032 14.9051C15.5777 14.7336 15.7163 14.5296 15.8111 14.3048C15.9059 14.0801 15.955 13.839 15.9556 13.5954C15.9562 13.3518 15.9083 13.1104 15.8146 12.8852C15.7209 12.66 15.5832 12.4554 15.4096 12.283ZM27.6504 9.23012L27.6323 9.21219L25.6332 7.25055C25.5161 7.13485 25.377 7.04328 25.2241 6.98115C25.0711 6.91901 24.9072 6.88753 24.7419 6.88853C24.474 6.88878 24.213 6.97254 23.9958 7.12795C23.9958 7.10308 23.9993 7.07879 24.001 7.0574C24.0273 6.68149 24.0681 6.11359 23.6977 5.59889C23.2573 5.0104 22.7737 4.45487 22.251 3.93682C22.2496 3.93514 22.248 3.93359 22.2463 3.93219C21.4693 3.17345 19.7782 1.74444 17.1876 0.697112C16.2051 0.297361 15.1532 0.0920579 14.0912 0.0927753C12.2502 0.0927753 10.8502 0.916293 10.3141 1.40439C10.0105 1.69183 9.73369 2.00577 9.48691 2.34241C9.36901 2.50374 9.30678 2.69849 9.30948 2.8977C9.31217 3.0969 9.37965 3.28992 9.50187 3.44806C9.6241 3.6062 9.79454 3.721 9.98785 3.77541C10.1812 3.82981 10.387 3.82091 10.5748 3.75003C10.7384 3.6894 10.9056 3.6386 11.0753 3.59793C11.4289 3.5238 11.7915 3.50139 12.1516 3.53142C12.921 3.59446 13.831 3.97325 14.2336 4.28843C14.9161 4.83263 15.2445 5.56593 15.2987 6.66472C15.3092 6.88564 14.8484 7.71378 14.1321 8.65874C13.9956 8.83708 13.929 9.0584 13.9445 9.2817C13.9601 9.50501 14.0568 9.71515 14.2166 9.8732L16.2239 11.8632C16.3926 12.0308 16.6197 12.1279 16.8584 12.1346C17.0971 12.1413 17.3293 12.057 17.5073 11.899C18.0749 11.3965 18.9394 10.6389 19.2415 10.4532C19.6901 10.1797 20.011 10.1271 20.099 10.1178C20.3276 10.0956 20.5576 10.1437 20.7576 10.2555C20.7586 10.2654 20.7575 10.2754 20.7544 10.2848C20.7513 10.2943 20.7463 10.303 20.7396 10.3104L20.6334 10.4105L20.6159 10.4266C20.4986 10.5425 20.4056 10.6802 20.3422 10.8319C20.2788 10.9836 20.2463 11.1462 20.2466 11.3103C20.2468 11.4745 20.2799 11.637 20.3437 11.7884C20.4076 11.9399 20.5011 12.0773 20.6188 12.1928L22.6173 14.1539C22.7345 14.2695 22.8735 14.361 23.0265 14.423C23.1795 14.4851 23.3434 14.5164 23.5087 14.5153C23.8406 14.5158 24.1594 14.3871 24.3965 14.1568L27.6341 10.9865C27.6451 10.9755 27.6562 10.9639 27.6667 10.9523C27.8839 10.7163 28.003 10.4075 27.9999 10.088C27.9969 9.76856 27.872 9.46206 27.6504 9.23012Z" fill="#A7BCCC"/>
</svg>
