<svg width="0" height="0" class="hidden"><symbol xmlns="http://www.w3.org/2000/svg" id="linkedin" width="100%" viewBox="0 0 24 24"><path d="M20.8205 1.5H3.29437C2.33672 1.5 1.5 2.18906 1.5 3.13547V20.7005C1.5 21.652 2.33672 22.5 3.29437 22.5H20.8153C21.7781 22.5 22.5 21.6464 22.5 20.7005V3.13547C22.5056 2.18906 21.7781 1.5 20.8205 1.5ZM8.00953 19.0045H5.00109V9.65063H8.00953V19.0045ZM6.60938 8.22844H6.58781C5.625 8.22844 5.00156 7.51172 5.00156 6.61453C5.00156 5.70094 5.64141 5.00109 6.62578 5.00109C7.61016 5.00109 8.2125 5.69578 8.23406 6.61453C8.23359 7.51172 7.61016 8.22844 6.60938 8.22844ZM19.0045 19.0045H15.9961V13.89C15.9961 12.6647 15.5583 11.8275 14.4698 11.8275C13.6383 11.8275 13.1461 12.39 12.9272 12.938C12.8452 13.1348 12.8231 13.403 12.8231 13.6767V19.0045H9.81469V9.65063H12.8231V10.9523C13.2609 10.3289 13.9448 9.43172 15.5363 9.43172C17.5111 9.43172 19.005 10.7334 19.005 13.5398L19.0045 19.0045Z"/></symbol><symbol xmlns="http://www.w3.org/2000/svg" id="github" width="100%" viewBox="0 0 24 24"><path d="M12.1429 1.5C6.34442 1.5 1.64285 6.32344 1.64285 12.2672C1.64285 17.025 4.65223 21.0562 8.8241 22.4812C8.88262 22.494 8.94235 22.5002 9.00223 22.5C9.39129 22.5 9.54129 22.2141 9.54129 21.9656C9.54129 21.7078 9.53192 21.0328 9.52723 20.1328C9.1799 20.2142 8.82458 20.2567 8.46785 20.2594C6.44754 20.2594 5.98817 18.6891 5.98817 18.6891C5.51004 17.4469 4.82098 17.1141 4.82098 17.1141C3.90692 16.4719 4.81629 16.4531 4.8866 16.4531H4.89129C5.94598 16.5469 6.4991 17.5687 6.4991 17.5687C7.0241 18.4875 7.72723 18.7453 8.35535 18.7453C8.77068 18.737 9.17959 18.6412 9.55535 18.4641C9.6491 17.7703 9.92098 17.2969 10.221 17.025C7.89129 16.7531 5.43973 15.8297 5.43973 11.7047C5.43973 10.5281 5.84754 9.56719 6.51785 8.81719C6.41004 8.54531 6.0491 7.44844 6.62098 5.96719C6.69769 5.94883 6.77653 5.94095 6.85535 5.94375C7.23504 5.94375 8.09285 6.08906 9.50848 7.07344C11.2286 6.59218 13.0478 6.59218 14.7679 7.07344C16.1835 6.08906 17.0413 5.94375 17.421 5.94375C17.4998 5.94095 17.5786 5.94883 17.6554 5.96719C18.2272 7.44844 17.8663 8.54531 17.7585 8.81719C18.4288 9.57187 18.8366 10.5328 18.8366 11.7047C18.8366 15.8391 16.3804 16.7484 14.0413 17.0156C14.4163 17.3484 14.7538 18.0047 14.7538 19.0078C14.7538 20.4469 14.7397 21.6094 14.7397 21.9609C14.7397 22.2141 14.885 22.5 15.2741 22.5C15.3371 22.5003 15.3999 22.494 15.4616 22.4812C19.6382 21.0562 22.6429 17.0203 22.6429 12.2672C22.6429 6.32344 17.9413 1.5 12.1429 1.5Z"/></symbol><symbol xmlns="http://www.w3.org/2000/svg" id="instagram" width="100%" viewBox="0 0 24 24"><path d="M16.6606 3.24984C17.8199 3.25331 18.9308 3.71539 19.7505 4.53517C20.5703 5.35495 21.0324 6.46582 21.0359 7.62516V16.3748C21.0324 17.5342 20.5703 18.6451 19.7505 19.4648C18.9308 20.2846 17.8199 20.7467 16.6606 20.7502H7.91087C6.75153 20.7467 5.64066 20.2846 4.82088 19.4648C4.0011 18.6451 3.53902 17.5342 3.53556 16.3748V7.62516C3.53902 6.46582 4.0011 5.35495 4.82088 4.53517C5.64066 3.71539 6.75153 3.25331 7.91087 3.24984H16.6606ZM16.6606 1.5H7.91087C4.54196 1.5 1.78571 4.25625 1.78571 7.62516V16.3748C1.78571 19.7438 4.54196 22.5 7.91087 22.5H16.6606C20.0295 22.5 22.7857 19.7438 22.7857 16.3748V7.62516C22.7857 4.25625 20.0295 1.5 16.6606 1.5Z"/><path d="M17.9731 7.625C17.7135 7.625 17.4597 7.54802 17.2439 7.4038C17.028 7.25959 16.8598 7.0546 16.7605 6.81477C16.6611 6.57494 16.6351 6.31104 16.6858 6.05644C16.7364 5.80184 16.8614 5.56798 17.045 5.38442C17.2285 5.20087 17.4624 5.07586 17.717 5.02522C17.9716 4.97458 18.2355 5.00057 18.4753 5.09991C18.7152 5.19925 18.9201 5.36748 19.0644 5.58331C19.2086 5.79915 19.2856 6.05291 19.2856 6.3125C19.2859 6.48496 19.2522 6.6558 19.1864 6.81521C19.1206 6.97462 19.0239 7.11945 18.902 7.24141C18.78 7.36336 18.6352 7.46002 18.4758 7.52585C18.3164 7.59168 18.1455 7.62537 17.9731 7.625ZM12.2857 8.49969C12.978 8.49969 13.6547 8.70497 14.2303 9.08957C14.8059 9.47417 15.2545 10.0208 15.5194 10.6604C15.7843 11.3 15.8537 12.0037 15.7186 12.6827C15.5836 13.3617 15.2502 13.9853 14.7607 14.4748C14.2712 14.9643 13.6475 15.2977 12.9686 15.4327C12.2896 15.5678 11.5858 15.4985 10.9463 15.2336C10.3067 14.9686 9.76004 14.52 9.37543 13.9444C8.99083 13.3688 8.78555 12.6921 8.78555 11.9998C8.78654 11.0718 9.15563 10.1821 9.81182 9.52596C10.468 8.86976 11.3577 8.50068 12.2857 8.49969ZM12.2857 6.74984C11.2474 6.74984 10.2323 7.05775 9.36896 7.63463C8.50561 8.21151 7.8327 9.03144 7.43534 9.99076C7.03798 10.9501 6.93401 12.0057 7.13659 13.0241C7.33916 14.0425 7.83917 14.9779 8.5734 15.7122C9.30762 16.4464 10.2431 16.9464 11.2615 17.149C12.2799 17.3515 13.3355 17.2476 14.2948 16.8502C15.2541 16.4529 16.074 15.7799 16.6509 14.9166C17.2278 14.0532 17.5357 13.0382 17.5357 11.9998C17.5357 10.6075 16.9826 9.2721 15.998 8.28753C15.0135 7.30297 13.6781 6.74984 12.2857 6.74984Z"/></symbol><symbol xmlns="http://www.w3.org/2000/svg" id="mail" width="100%" fill="none" viewBox="0 0 24 24"><path stroke-linecap="round" stroke-linejoin="round" stroke-width="2" d="M4.42857 4H20.4286C21.5286 4 22.4286 4.9 22.4286 6V18C22.4286 19.1 21.5286 20 20.4286 20H4.42857C3.32857 20 2.42857 19.1 2.42857 18V6C2.42857 4.9 3.32857 4 4.42857 4Z"/><path stroke-linecap="round" stroke-linejoin="round" stroke-width="2" d="M22.4286 6L12.4286 13L2.42857 6"/></symbol></svg>