<svg width="28" height="16" viewBox="0 0 28 16" fill="none" xmlns="http://www.w3.org/2000/svg">
<path d="M25.375 15.0213C25.13 15.0212 24.8878 14.9695 24.6641 14.8698C24.612 14.8467 24.5624 14.8185 24.5159 14.7856L19.9927 11.6017C19.7633 11.4402 19.5761 11.226 19.4468 10.977C19.3176 10.728 19.2501 10.4516 19.25 10.1711V5.82891C19.2501 5.54838 19.3176 5.27198 19.4468 5.023C19.5761 4.77402 19.7633 4.55976 19.9927 4.39828L24.5159 1.21437C24.5624 1.18148 24.612 1.15327 24.6641 1.13016C24.9305 1.0117 25.2223 0.961696 25.513 0.984689C25.8037 1.00768 26.084 1.10294 26.3285 1.26181C26.573 1.42069 26.7739 1.63814 26.913 1.8944C27.0521 2.15067 27.125 2.43763 27.125 2.72922V13.2708C27.125 13.7349 26.9406 14.18 26.6124 14.5082C26.2842 14.8364 25.8391 15.0208 25.375 15.0208V15.0213ZM14.6562 15.875H4.59375C3.60779 15.874 2.6625 15.4819 1.96532 14.7847C1.26813 14.0875 0.876013 13.1422 0.875 12.1562V3.84375C0.876013 2.85779 1.26813 1.9125 1.96532 1.21532C2.6625 0.518135 3.60779 0.126013 4.59375 0.125H14.6825C15.6615 0.126158 16.6 0.51556 17.2922 1.20779C17.9844 1.90001 18.3738 2.83854 18.375 3.8175V12.1562C18.374 13.1422 17.9819 14.0875 17.2847 14.7847C16.5875 15.4819 15.6422 15.874 14.6562 15.875Z" fill="#CCA7A7"/>
</svg>
