<svg width="28" height="23" viewBox="0 0 28 23" fill="none" xmlns="http://www.w3.org/2000/svg">
<path d="M11.06 2.04708C9.08414 1.10372 6.32242 0.641606 2.625 0.6252C2.27629 0.620463 1.93443 0.722144 1.645 0.916685C1.40743 1.07726 1.21296 1.29376 1.07869 1.54713C0.944426 1.8005 0.874478 2.08298 0.874999 2.36973V18.0158C0.874999 19.0735 1.6275 19.8714 2.625 19.8714C6.51164 19.8714 10.4103 20.2345 12.7455 22.4417C12.7774 22.472 12.8176 22.4923 12.8609 22.5C12.9043 22.5077 12.949 22.5025 12.9894 22.485C13.0299 22.4675 13.0643 22.4386 13.0884 22.4017C13.1125 22.3648 13.1252 22.3217 13.125 22.2776V3.84192C13.1251 3.71754 13.0985 3.59458 13.047 3.48137C12.9955 3.36815 12.9202 3.26731 12.8264 3.18567C12.2915 2.72839 11.6973 2.3454 11.06 2.04708ZM26.355 0.915044C26.0654 0.720987 25.7235 0.619874 25.375 0.6252C21.6776 0.641606 18.9159 1.10153 16.94 2.04708C16.3027 2.34486 15.7084 2.7271 15.173 3.18348C15.0794 3.26527 15.0044 3.36615 14.953 3.47934C14.9016 3.59253 14.875 3.71541 14.875 3.83973V22.2765C14.875 22.3189 14.8874 22.3603 14.9109 22.3955C14.9343 22.4308 14.9676 22.4584 15.0066 22.4748C15.0456 22.4912 15.0886 22.4957 15.1302 22.4878C15.1718 22.4799 15.2101 22.4598 15.2403 22.4302C16.6441 21.0357 19.1078 19.8697 25.3772 19.8703C25.8413 19.8703 26.2864 19.6859 26.6146 19.3577C26.9428 19.0295 27.1272 18.5844 27.1272 18.1203V2.37028C27.1278 2.08296 27.0577 1.79991 26.923 1.54611C26.7884 1.29232 26.5933 1.07558 26.355 0.915044Z" fill="#BCA7CC"/>
</svg>
